Coordinates
version=1
nRows=11
nColumns=42
inDegrees=yes

Units are S.I. units (second, meters, Newtons, ...)
If the header above contains a line with 'inDegrees', this indicates whether rotational values are in degrees (yes) or radians (no).

endheader
time	pelvis_tilt	pelvis_list	pelvis_rotation	pelvis_tx	pelvis_ty	pelvis_tz	hip_flexion_r	hip_adduction_r	hip_rotation_r	knee_angle_r	knee_adduction_r	knee_angle_r_beta	ankle_angle_r	subtalar_angle_r	mtp_angle_r	hip_flexion_l	hip_adduction_l	hip_rotation_l	knee_angle_l	knee_adduction_l	knee_angle_l_beta	ankle_angle_l	subtalar_angle_l	mtp_angle_l	lumbar_extension	lumbar_bending	lumbar_rotation	arm_flex_r	arm_add_r	arm_rot_r	elbow_flex_r	pro_sup_r	wrist_flex_r	wrist_dev_r	arm_flex_l	arm_add_l	arm_rot_l	elbow_flex_l	pro_sup_l	wrist_flex_l	wrist_dev_l
      2.16000000	      7.86098747	      0.50834416	      4.01246993	     -0.11343984	      0.89338321	      0.21446613	     20.42443865	     -1.42272629	    -26.11678892	     54.34804486	    -16.12103865	      0.94855232	      5.22880205	    -10.62143942	     -7.50054261	     -7.14340205	     10.08629152	     -7.12431462	     13.41470851	    -11.69765918	      0.23413083	     24.30197990	     16.02082000	     -7.50054261	    -28.05930651	      0.87462950	     -0.25182506	      6.74061810	    -15.52094816	     13.99561268	     35.32973425	     90.00000001	      0.00000000	      0.00000000	     14.50794987	    -17.25048897	     15.86927989	     43.79693645	     90.00000001	      0.00000000	      0.00000000
      2.17000000	      7.82667198	      0.45886810	      4.41949019	     -0.10205237	      0.89272214	      0.21369495	     21.18349306	     -1.39262995	    -26.00095690	     51.28781023	    -15.31751218	      0.89514115	      5.68993518	     -9.99589790	     -7.50052622	     -8.26553903	      9.88083091	     -7.08800931	     12.80923659	    -11.63810117	      0.22356335	     24.91989492	     16.90719504	     -7.50052622	    -28.07915589	      1.12473789	     -0.66788054	      6.06125341	    -15.29740071	     13.92283233	     35.00908880	     90.00000001	      0.00000000	      0.00000000	     15.45793527	    -17.76492249	     15.72704936	     45.07320956	     90.00000001	      0.00000000	      0.00000000
      2.18000000	      7.91059303	      0.40913864	      4.83352396	     -0.09048317	      0.89199997	      0.21307920	     21.69034575	     -1.35827122	    -26.74359011	     47.85308317	    -15.12113245	      0.83519386	      6.39892944	     -7.97394990	     -7.50048447	     -9.37593417	      9.57327697	     -7.63426773	     12.38335425	    -11.60296008	      0.21613030	     25.59400311	     18.59638747	     -7.50048447	    -28.22713425	      1.35823731	     -1.02019058	      5.31521740	    -15.06488583	     13.71505029	     34.83471197	     90.00000001	      0.00000000	      0.00000000	     16.54046749	    -18.22296905	     15.63753388	     46.11197553	     90.00000001	      0.00000000	      0.00000000
      2.19000000	      7.37540107	      0.72080577	      5.02864171	     -0.07975548	      0.88989670	      0.21238632	     23.13868902	     -1.85622573	    -26.48854969	     45.06901463	    -14.30722041	      0.78660270	      6.79838074	     -7.67026872	     -7.50047701	     -9.61226621	      9.98379413	     -7.74074330	     12.35204950	    -11.79853009	      0.21558393	     25.92625599	     18.55652612	     -7.50047701	    -27.79908914	      1.10968032	     -1.36435335	      4.59494453	    -14.85638211	     13.75257151	     34.63107776	     90.00000001	      0.00000000	      0.00000000	     17.61979914	    -18.59280486	     15.42937673	     46.97283639	     90.00000001	      0.00000000	      0.00000000
      2.20000000	      7.75590867	      0.42712535	      5.53072768	     -0.06791674	      0.88941267	      0.21201049	     22.88837035	     -1.44460302	    -28.06966569	     40.83431171	    -14.40732719	      0.71269319	      7.88031245	     -4.04111120	     -7.50043638	    -11.14329946	      9.24367842	     -7.77703265	     11.88172269	    -11.53398776	      0.20737518	     26.96174845	     19.95409842	     -7.50043638	    -28.26685399	      1.64578439	     -1.67722862	      4.05814661	    -14.50883091	     13.25824204	     34.16991545	     90.00000001	      0.00000000	      0.00000000	     18.62006314	    -19.06815631	     15.36110119	     48.21729801	     90.00000001	      0.00000000	      0.00000000
      2.21000000	      7.66151357	      0.43783777	      5.81520165	     -0.05665156	      0.88782963	      0.21171991	     23.39744437	     -1.45777477	    -29.18018933	     37.16251229	    -14.23318646	      0.64860820	      8.65170459	     -1.29643955	     -7.50040280	    -11.92001226	      9.06885123	     -7.80738722	     11.82406603	    -11.47941520	      0.20636888	     27.60035672	     20.44735731	     -7.50040280	    -28.29126472	      1.75084708	     -1.91077291	      3.45646785	    -14.21506491	     12.96977754	     33.85796622	     90.00000001	      0.00000000	      0.00000000	     19.66881923	    -19.40926016	     15.19538915	     49.15846546	     90.00000001	      0.00000000	      0.00000000
      2.22000000	      7.50338401	      0.47913642	      6.03949317	     -0.04538818	      0.88593248	      0.21153729	     23.95079298	     -1.53385362	    -30.51032864	     33.58645106	    -14.06405607	      0.58619416	      9.57459574	      2.14957989	     -7.50036703	    -12.55368854	      8.98063538	     -7.87002149	     11.91027964	    -11.50608765	      0.20787359	     28.35497315	     20.70177705	     -7.50036703	    -28.24550047	      1.79869665	     -2.09736710	      2.90269250	    -13.90363673	     12.64308860	     33.46417251	     90.00000001	      0.00000000	      0.00000000	     20.68126500	    -19.71920586	     15.05182066	     50.03380295	     90.00000001	      0.00000000	      0.00000000
      2.23000000	      7.35134461	      0.45978555	      6.16944186	     -0.03414530	      0.88392766	      0.21160342	     24.42568145	     -1.41635547	    -31.62587642	     30.07869415	    -13.76209771	      0.52497225	     10.02426587	      4.86469763	     -7.50034844	    -13.13421888	      8.83501928	     -7.95518388	     12.13380199	    -11.52355606	      0.21177480	     29.05367098	     20.57327591	     -7.50034844	    -28.22013874	      1.87714202	     -2.15420505	      2.38492828	    -13.63074279	     12.34622504	     33.08696440	     90.00000001	      0.00000000	      0.00000000	     21.66556947	    -19.92818814	     14.81713622	     50.83864773	     90.00000001	      0.00000000	      0.00000000
      2.24000000	      7.11882210	      0.50953618	      6.23340060	     -0.02286080	      0.88160598	      0.21182983	     24.99544024	     -1.40019146	    -32.78920432	     26.87186321	    -13.43826525	      0.46900249	     10.57985927	      8.41583291	     -7.50033188	    -13.58439585	      8.77861025	     -8.04078568	     12.46027470	    -11.53166897	      0.21747282	     29.81470329	     20.47090798	     -7.50033188	    -28.10555755	      1.84395511	     -2.18098979	      1.91102759	    -13.32894881	     11.99205015	     32.69630537	     90.00000001	      0.00000000	      0.00000000	     22.57279963	    -20.12121440	     14.57820089	     51.58165926	     90.00000001	      0.00000000	      0.00000000
      2.25000000	      6.52201864	      0.80369111	      6.17617910	     -0.01196175	      0.87849257	      0.21178208	     26.12472531	     -1.69194338	    -32.93617960	     24.53687194	    -12.78425962	      0.42824920	     10.90660133	      9.43021269	     -7.50032643	    -13.61542762	      9.36692215	     -7.92150992	     12.75988459	    -12.04783334	      0.22270200	     30.16391950	     20.36857484	     -7.50032643	    -27.64116768	      1.52042618	     -2.21897281	      1.37314087	    -13.15986335	     11.93793922	     32.53907968	     90.00000001	      0.00000000	      0.00000000	     23.42457955	    -20.24469077	     14.35971958	     52.21770646	     90.00000001	      0.00000000	      0.00000000
      2.26000000	      6.57527707	      0.73112117	      6.30507141	      0.00026249	      0.87632510	      0.21218796	     26.33640401	     -1.72130545	    -35.51639596	     22.03733059	    -12.81719102	      0.38462398	     11.91092879	     16.53442419	     -7.50030370	    -14.41427390	      8.95697582	     -8.28940609	     13.11517245	    -11.85986794	      0.22890294	     30.96627865	     20.76287845	     -7.50030370	    -27.72667908	      1.64815362	     -2.17316743	      0.86479125	    -12.77684366	     11.11413465	     32.15040458	     90.00000001	      0.00000000	      0.00000000	     24.14853274	    -20.31803150	     13.98308900	     52.98037416	     90.00000001	      0.00000000	      0.00000000
